<svg width="89" height="115" fill="none" xmlns="http://www.w3.org/2000/svg"><path d="M82.674 102.035a19.993 19.993 0 0 1-4.108 1.718l-.07-.142c-.08-.112-.177-.214-.262-.323.71-1.121 1.353-2.289 2.284-3.251 1.034-1.066 2.982-2.412 4.543-1.7 2.31 1.055-1.455 3.174-2.387 3.698Zm-47.548-8.39c4.48-11.663 8.446-24.84 8.273-37.42 2.841.26 5.648.083 8.217-.643a19.155 19.155 0 0 0 4.566-1.983l.05.115C62.64 65.181 70.703 75.21 80.048 84.381c-10.937 13.467-29.549 17.313-44.922 9.265Zm3.089-40.566c-7.487-2.302-13.727-7.654-15.583-14.615 14.01 2.029 29.872-3.164 37.71-15.372 3.817 4.89 5.603 11.116 3.669 17.672-3.407 11.54-14.981 15.639-25.796 12.315ZM22.979 28.504a16.887 16.887 0 0 1 4.2-6.877c-1.637 4.314-.806 9.76 2.667 12.846.672.597 1.581-.231 1.027-.948-3.352-4.333-3.868-9.256-1.187-13.999 1.485-1.044 3.12-1.903 4.85-2.59.792 5.134 3.03 10.835 6.54 14.514.54.566 1.519-.094 1.129-.802-1.305-2.377-2.854-4.563-3.973-7.051-1.042-2.317-1.725-4.713-2.354-7.152 1.65-.56 3.367-.978 5.103-1.271 2.239.987 4.137 2.163 5.849 4.056 1.592 1.761 2.671 3.853 4.08 5.739.353.47 1.245.01 1.035-.55-1.387-3.685-4.564-7.823-8.446-9.574a41.05 41.05 0 0 1 6.067-.17c.124.236.323.443.618.574 3.386 1.507 6.475 3.707 8.933 6.396C50.974 34.891 36.54 36.71 22.383 37.381c-.541-2.757-.408-5.742.596-8.877Zm1.182-6.681a19.138 19.138 0 0 0-2.035 3.285c-.337-.242-.647-.512-.882-.92-.47-.817-.625-1.838-.143-2.687.794-1.4 2.775-1.633 4.04-.823a17.84 17.84 0 0 0-.98 1.145Zm-20.65 6.453c3.53-1.203 6.324-3.824 7.606-7.49.956-2.735.56-5.54 3.585-7.395 1.298-.796 3.085-1.03 4.562-.893 3.866.36 6.373 2.89 8.15 6.089-.42.337-.829.681-1.214 1.04-.046-.063-.092-.127-.163-.18-2.084-1.543-5.389-.843-6.473 1.594-.724 1.63.047 4.552 1.758 5.449-5.088 4.385-11.933 4.779-17.81 1.786Zm48.597-14.84c-.404-.17-.812-.33-1.225-.475-.518-.18-.922-.027-1.175.27a16.976 16.976 0 0 0-2.145-.46.54.54 0 0 0 .36-.38c.387-1.279 1.772-2.599 3.219-1.96 1.182.524 1.418 1.93.966 3.005Zm5.15-10.464c.99.202 1.934.502 2.86.797 1.64.521 3.223 1.026 4.902.931-2.206 4.177-4.411 9.304-9.619 9.605a.889.889 0 0 0-.722.42c-.334-.192-.665-.39-1.008-.566.98-1.854.057-4.517-1.899-5.32-2.206-.903-5.183.85-5.018 3.36.015.222.137.39.294.494-.46-.059-.928-.096-1.398-.122-.629-6.627 5.148-10.912 11.608-9.599ZM50.06 110.501c-.022.258-.046.516-.067.775a.662.662 0 0 0-.28.035c-1.501.571-2.99 1.135-4.592 1.358-1.313.182-4.283.428-5.307-.582-.85-.841.743-1.138 1.474-1.315a16.74 16.74 0 0 1 2.446-.402c1.872-.17 3.713-.042 5.556.323a.907.907 0 0 0 .77-.192ZM17.658 53.836c-.314-.062-.63.112-.817.377-1.385-.234-3.049-.264-3.866-1.563-.688-1.093-.338-2.786.767-3.48 1.101-.693 2.774-.317 3.576.664.854 1.048.92 2.796.34 4.002Zm61.268-19.404c-.094-1.268.685-2.491 1.992-2.657 1.36-.172 2.821.804 3.058 2.178.226 1.311-.474 2.548-1.54 3.244-1.48-.421-3.377-.949-3.51-2.765Zm8.32 63.049c-1.427-1.485-3.851-1.233-5.554-.43-2.054.968-3.541 2.892-4.632 4.871-.911-.976-1.883-1.911-2.745-2.905-1.149-1.324-2.216-2.745-3.423-4.02 4.363-2.485 8.312-5.87 11.571-10.105.272-.354.216-1.04-.12-1.344-7.402-6.66-13.817-14.383-19.265-22.721 9.61-2.638 18.749-12.042 20.287-21.972 1.856-1.105 2.987-3.35 2.497-5.507-.528-2.323-2.95-3.896-5.284-3.59-2.256.294-3.775 2.393-3.685 4.618.107 2.669 2.367 3.681 4.644 4.063l.026.088-.012.019c-2.017 4.925-3.872 9.306-7.642 13.208-3.342 3.457-7.394 5.728-11.712 7.703a134.235 134.235 0 0 1-4.033-6.771 1.104 1.104 0 0 0-.212-.27c4.786-3.553 8.128-9.152 8.79-15.045.931-8.277-3.43-16.63-10.16-21.433 5.89-1.117 8.091-7.363 11.023-12.057.53-.852-.404-1.642-1.221-1.32-2.074.814-4.276.023-6.437-.754-1.21-.436-2.408-.867-3.562-1.011-2.652-.33-5.456.1-7.781 1.462-3.559 2.083-5.612 6.36-4.41 10.284-5.473.061-11.38 2.106-15.804 5.298-1.19-4.899-6.95-7.935-11.763-7.052-2.84.52-5.013 2.165-6.06 4.856-.903 2.326-.92 4.75-2.336 6.905-1.712 2.603-4.318 4.013-7.322 4.51-.792.132-.904 1.25-.279 1.651 5.99 3.842 14.163 4.504 20.016.457-1.423 5.692-.443 11.979 3.106 16.75 3.966 5.332 11.085 9.114 18.2 10.146a179.411 179.411 0 0 0-1.092 6.104c-4.16.154-8.088.096-12.117-1.286-3.95-1.354-6.77-3.728-9.907-6.217 1.4-1.845 1.641-4.238.182-6.155-1.436-1.886-4.253-2.475-6.323-1.31-1.908 1.072-2.737 3.61-1.889 5.616.993 2.348 3.898 3.043 6.231 2.649 4.531 7.06 15.438 10.67 23.509 8.618-.594 3.64-1.188 7.282-2.03 10.885-1.503 6.434-3.502 12.716-5.872 18.88-.166.433.065 1.056.473 1.28 5.79 3.184 12.03 4.777 18.207 4.878-.526 3.018-.868 6.062-1.144 9.112a.869.869 0 0 0-.36-.16c-2.264-.478-14.215-1.637-12.466 3.477.67 1.958 3.359 2.341 5.113 2.427 2.796.138 5.726-.675 7.863-2.51.59.442 1.709.196 1.788-.789.312-3.847.567-7.703.512-11.563a38.261 38.261 0 0 0 16.88-4.264c.88 1.682 2.1 3.222 3.301 4.672 1.346 1.624 2.747 3.425 4.468 4.662.327.236.64.221.89.082.15.109.348.161.589.11 2.375-.512 12.214-3.898 8.488-7.78Z" fill="#FEB9CC"/><path d="M36.917 44.008c-.08-1.449-1.742-2.428-3.06-1.782-.664.326-1.116 1.104-.898 1.824-.074.18-.139.367-.192.567-.186.693.186 1.233.802 1.511 1.435.649 3.439-.467 3.348-2.12Zm22.487-9.882c-.648-1.163-2.566-1.84-3.568-.704a1.5 1.5 0 0 0-.255.418c-.213.248-.38.54-.475.857-.477 1.573.987 2.838 2.48 2.67 1.552-.175 2.624-1.796 1.818-3.241Zm-9.784 10.64c.107-.395.198-.74-.078-1.088a2.005 2.005 0 0 0-.57-.484c-.928-.535-2.125-.282-2.69.63-.259.418.227 1.025.68.737a1.21 1.21 0 0 1 1.128-.079c-.19.624-.4 1.277-.413 1.906-.015.666.954 1.026 1.3.398.339-.615.463-1.347.644-2.02Zm2.064 2.455c-.972 1.927-3.236 3.125-5.282 1.936-.464-.27-.85.372-.44.693 2.223 1.742 6.18.835 6.979-2.05.201-.725-.888-1.31-1.257-.579Z" fill="#FEB9CC"/></svg>