<svg width="32" height="39" fill="none" xmlns="http://www.w3.org/2000/svg"><path d="M27.314 27.577 16 39 4.686 27.577a16.203 16.203 0 0 1-4.379-8.271 16.3 16.3 0 0 1 .911-9.334 16.122 16.122 0 0 1 5.893-7.25A15.891 15.891 0 0 1 16 0c3.165 0 6.258.947 8.89 2.722a16.122 16.122 0 0 1 5.892 7.25 16.299 16.299 0 0 1 .91 9.334 16.204 16.204 0 0 1-4.378 8.271ZM16 19.744c.943 0 1.847-.378 2.514-1.051a3.607 3.607 0 0 0 1.042-2.539c0-.952-.375-1.865-1.042-2.538A3.539 3.539 0 0 0 16 12.564a3.54 3.54 0 0 0-2.514 1.052 3.607 3.607 0 0 0-1.042 2.538 3.61 3.61 0 0 0 1.042 2.539A3.539 3.539 0 0 0 16 19.744Z" fill="#5879E8"/></svg>